<?xml version="1.0" encoding="UTF-8"?>
<svg width="1200" height="800" viewBox="0 0 1200 800" xmlns="http://www.w3.org/2000/svg">
  <defs>
    <linearGradient id="blueGradient" x1="0%" y1="0%" x2="100%" y2="100%">
      <stop offset="0%" stop-color="#3182CE" stop-opacity="0.9"/>
      <stop offset="100%" stop-color="#2B6CB0" stop-opacity="1"/>
    </linearGradient>
  </defs>
  <rect width="100%" height="100%" fill="url(#blueGradient)"/>
  <path fill="#4299E1" fill-opacity="0.3" d="M0,160 C320,300 420,240 640,180 C950,100 1080,160 1200,120 L1200,800 L0,800 Z" />
  <path fill="#63B3ED" fill-opacity="0.3" d="M0,320 C220,260 320,420 520,360 C720,300 820,200 1200,240 L1200,800 L0,800 Z" />
  <path fill="#90CDF4" fill-opacity="0.3" d="M0,520 C220,460 320,540 540,500 C880,430 980,460 1200,400 L1200,800 L0,800 Z" />
</svg>
